<svg xmlns="http://www.w3.org/2000/svg" viewBox="0 0 416.6 69.19"><defs><style>.cls-1{fill:#111;}</style></defs><title>Asset 36</title><g id="Layer_2" data-name="Layer 2"><g id="Layer_1-2" data-name="Layer 1"><path class="cls-1" d="M22.79,0C46.5,0,60,15.33,60,33.93S46.5,67.86,22.79,67.86H0V0Zm.61,8.59H9.2V59.28H23.4c17.07,0,27.39-10.43,27.39-25.35S40.47,8.59,23.4,8.59Z"/><path class="cls-1" d="M107.27,37.92V67.86H98.48V62.75c-3.68,4-9.1,6.44-16.35,6.44-11,0-19.12-5.11-19.12-15.64,0-11.34,9.82-15.22,20.65-15.22H98.48c0-7.77-5.93-10.63-13.7-10.63-5.62,0-11.24,2.35-13.08,6.84H61.89c2.76-9.7,12.06-15,22.89-15C98.07,19.52,107.27,26.16,107.27,37.92ZM98.48,46H83.56C76.3,46,71.8,48.44,71.8,53.55S76.3,61,83.05,61c9.5,0,15.43-4.9,15.43-11.95Z"/><path class="cls-1" d="M126.54,8V20.85h15v7.77h-15V51.71c0,5.63,3,8.38,8.79,8.38h6.23v7.77h-6.33c-11.76,0-17.48-5.41-17.48-14.51V28.62h-8.69V20.85h8.69V8Z"/><path class="cls-1" d="M187.88,37.92V67.86h-8.79V62.75c-3.68,4-9.1,6.44-16.35,6.44-11,0-19.12-5.11-19.12-15.64,0-11.34,9.82-15.22,20.65-15.22h14.82c0-7.77-5.93-10.63-13.7-10.63-5.62,0-11.24,2.35-13.08,6.84H142.5c2.76-9.7,12.06-15,22.89-15C178.68,19.52,187.88,26.16,187.88,37.92ZM179.09,46H164.17c-7.26,0-11.76,2.45-11.76,7.56S156.91,61,163.66,61c9.5,0,15.43-4.9,15.43-11.95Z"/><path class="cls-1" d="M225.18,8.59V29.64h36.07v8.58H225.18V67.86H216V0h46V8.59Z"/><path class="cls-1" d="M300.59,54.68h9.5c-3.27,9.09-11.65,14.51-22,14.51-14.21,0-24.63-10.42-24.63-24.94,0-14.1,9.91-24.73,24.12-24.73,13.49,0,23.1,10.73,23.1,24.22a25.43,25.43,0,0,1-.21,3.89H272.58A15.43,15.43,0,0,0,288.12,61C293.64,61,298.14,58.87,300.59,54.68ZM272.69,40h28.82c-1.13-7.26-6.24-12.26-13.9-12.26C279.53,27.7,273.71,32.7,272.69,40Z"/><path class="cls-1" d="M348.31,34.14c-2.14-4.5-7.05-6.44-14.1-6.44-6.75,0-11.34,2.45-11.34,6.44s3.47,5.41,9.7,5.92l9.51.72c9.81.82,15.43,5.21,15.43,13.69,0,8.08-7.76,14.72-20.85,14.72-13.79,0-22.07-6.85-24.12-15h9.71c1.84,4.49,7.26,6.84,15.54,6.84,6.13,0,10.93-2.45,10.93-6.33s-3.47-5.52-9.81-6l-9.81-.82c-10-.92-15-5.31-15-13.39,0-8.28,7.76-14.82,20.23-14.82,14,0,21.57,6.85,23.71,14.52Z"/><path class="cls-1" d="M375.63,8V20.85h15v7.77h-15V51.71c0,5.63,3,8.38,8.79,8.38h6.23v7.77h-6.33c-11.76,0-17.48-5.41-17.48-14.51V28.62h-8.69V20.85h8.69V8Z"/><path class="cls-1" d="M398.57,24.54c.83,2.85,3.22,4.05,6.26,4.05,3.4,0,5.61-1.75,5.61-4.14s-1.84-4-5.34-4H401V14.88H405c3.5,0,5.34-1.38,5.34-3.77s-2.12-4-5.52-4c-2.95,0-5.34,1.2-6.17,3.87H392.5c1.2-6.72,6.53-9.39,12.23-9.39,7.27,0,11.78,4.42,11.78,9.48a7.45,7.45,0,0,1-3.68,6.53,7.78,7.78,0,0,1,3.77,6.81c0,5.15-4.51,9.65-11.87,9.65-5.79,0-11-2.85-12.23-9.56Z"/></g></g></svg>